<?xml version="1.0" encoding="UTF-8"?>
<svg width="158" height="158" viewBox="0 0 158 158" xmlns="http://www.w3.org/2000/svg" role="img" font-family="system-ui, -apple-system, Segoe UI, PingFang SC, Microsoft YaHei, sans-serif" style="max-width:100%;height:auto"><title>安全屋 平面示意</title><desc>安全屋：15 × 15 米房型的内部结构平面示意。</desc><defs>
<marker id="ar" viewBox="0 0 10 10" refX="8" refY="5" markerWidth="6" markerHeight="6" orient="auto-start-reverse">
<path d="M2 1L8 5L2 9" fill="none" stroke="context-stroke" stroke-width="1.5" stroke-linecap="round" stroke-linejoin="round"/>
</marker>
<marker id="ar-s" viewBox="0 0 10 10" refX="8" refY="5" markerWidth="4.5" markerHeight="4.5" orient="auto-start-reverse">
<path d="M2 1L8 5L2 9" fill="none" stroke="context-stroke" stroke-width="1.6" stroke-linecap="round" stroke-linejoin="round"/>
</marker>
</defs><line x1="34" y1="34" x2="34" y2="124" stroke="#eef2f7" stroke-width="0.5"/><line x1="64" y1="34" x2="64" y2="124" stroke="#eef2f7" stroke-width="0.5"/><line x1="94" y1="34" x2="94" y2="124" stroke="#eef2f7" stroke-width="0.5"/><line x1="124" y1="34" x2="124" y2="124" stroke="#eef2f7" stroke-width="0.5"/><line x1="34" y1="34" x2="124" y2="34" stroke="#eef2f7" stroke-width="0.5"/><line x1="34" y1="64" x2="124" y2="64" stroke="#eef2f7" stroke-width="0.5"/><line x1="34" y1="94" x2="124" y2="94" stroke="#eef2f7" stroke-width="0.5"/><line x1="34" y1="124" x2="124" y2="124" stroke="#eef2f7" stroke-width="0.5"/><rect x="34" y="34" width="90" height="90" rx="2" fill="#EAF3DE" stroke="#639922" stroke-width="1.2"/><circle cx="79" cy="85.6" r="4.4" fill="#ffffff" stroke="#639922" stroke-width="0.8"/><text x="79" y="85.6" font-size="8" font-weight="400" text-anchor="middle" dominant-baseline="middle" fill="#27500A">抵达</text><line x1="47.2" y1="124" x2="89.2" y2="124" stroke="#ffffff" stroke-width="3.6"/><line x1="47.2" y1="124" x2="89.2" y2="124" stroke="#475569" stroke-width="0.9" stroke-dasharray="3 2"/><text x="68.2" y="114.4" font-size="8.5" font-weight="400" text-anchor="middle" dominant-baseline="middle" fill="#27500A">弃局门</text><text x="79" y="151.6" font-size="9" font-weight="400" text-anchor="middle" dominant-baseline="middle" fill="#64748b">15 × 15 m · 双门互垂</text><line x1="124" y1="58.3" x2="124" y2="84.7" stroke="#ffffff" stroke-width="3.6"/><line x1="124" y1="58.3" x2="124" y2="84.7" stroke="#475569" stroke-width="0.9" stroke-dasharray="3 2"/></svg>